<?xml version="1.0" standalone="no"?>
<!DOCTYPE svg PUBLIC "-//W3C//DTD SVG 20010904//EN"
 "http://www.w3.org/TR/2001/REC-SVG-20010904/DTD/svg10.dtd">
<svg version="1.0" xmlns="http://www.w3.org/2000/svg"
 width="1024.000000pt" height="1024.000000pt" viewBox="0 0 1024.000000 1024.000000"
 preserveAspectRatio="xMidYMid meet">

<g transform="translate(0.000000,1024.000000) scale(0.100000,-0.100000)"
fill="#000000" stroke="none">
<path d="M0 5120 l0 -5120 5120 0 5120 0 0 5120 0 5120 -5120 0 -5120 0 0
-5120z m5585 2471 c367 -61 689 -194 962 -398 92 -68 126 -98 83 -71 -18 11
-32 13 -49 6 -20 -7 -22 -6 -12 6 18 21 -6 32 -28 12 -20 -18 -41 -21 -41 -6
0 6 7 10 15 10 8 0 15 5 15 10 0 6 -14 4 -31 -5 -32 -17 -55 -12 -29 6 11 7 6
8 -14 3 -22 -5 -27 -4 -21 6 6 9 3 9 -15 0 -18 -9 -21 -9 -15 0 6 10 1 11 -21
6 -21 -5 -25 -4 -14 4 12 8 10 10 -12 10 -14 0 -59 16 -99 35 -77 37 -99 42
-99 24 0 -6 -5 -7 -12 -2 -7 4 -48 19 -91 34 -42 14 -74 28 -71 32 3 3 -2 4
-13 3 -10 -2 -26 1 -36 6 -10 5 -31 10 -48 10 -16 1 -29 4 -29 8 0 8 -65 22
-120 26 -19 1 -36 3 -37 3 -2 1 -4 0 -5 -1 -2 -1 -14 5 -28 12 -15 8 -62 15
-115 16 -129 4 -184 8 -179 15 2 4 -18 5 -43 4 -26 -2 -49 -8 -51 -13 -2 -7
-44 -9 -115 -7 -62 2 -148 -1 -192 -7 -44 -5 -93 -9 -108 -8 -16 0 -26 -4 -22
-9 3 -6 -3 -8 -15 -6 -11 2 -20 -2 -20 -8 0 -8 -3 -8 -8 -2 -9 12 -52 15 -52
3 0 -4 -7 -8 -16 -8 -8 0 -12 5 -9 10 3 6 1 10 -4 10 -6 0 -11 -4 -11 -9 0 -5
-8 -8 -17 -6 -10 1 -22 0 -28 -4 -11 -6 -60 -11 -114 -11 -18 1 -39 -5 -47
-11 -8 -7 -17 -9 -21 -5 -3 3 -1 6 5 6 7 0 12 4 12 9 0 6 -15 7 -34 4 -18 -3
-43 0 -56 7 -13 7 -20 8 -16 1 4 -5 -7 -17 -25 -26 -17 -9 -28 -12 -25 -6 5 7
-4 11 -23 11 -23 0 -31 -5 -32 -17 0 -11 -3 -13 -6 -5 -2 6 -13 12 -23 12 -10
0 -21 6 -23 13 -3 7 -6 5 -6 -5 -1 -20 -21 -25 -22 -5 0 10 -2 10 -6 0 -2 -7
-14 -13 -24 -13 -11 0 -17 5 -14 10 9 15 -1 12 -45 -10 -55 -28 -50 -17 6 14
50 28 69 33 58 14 -4 -7 -3 -8 5 -4 6 4 9 12 5 17 -3 5 45 34 108 63 222 104
516 179 783 200 110 8 384 -4 500 -23z m-20 -245 c174 -30 298 -62 410 -106
115 -46 288 -136 378 -197 82 -56 237 -182 237 -192 -1 -3 -15 -23 -33 -44
l-33 -38 -39 33 c-63 52 -202 150 -290 203 -254 154 -584 248 -911 262 -333
14 -739 -94 -1042 -278 -216 -131 -419 -306 -516 -445 -27 -38 -66 -91 -86
-119 -53 -72 -172 -297 -209 -396 -17 -46 -42 -129 -55 -184 -58 -236 -61
-261 -61 -470 0 -210 8 -266 67 -485 60 -220 209 -508 365 -705 162 -203 354
-362 603 -498 241 -131 409 -186 683 -222 171 -22 297 -19 472 10 308 53 521
127 695 244 30 20 84 55 120 76 70 43 305 265 395 374 29 37 83 116 120 176
183 301 272 554 311 885 43 374 -66 804 -292 1152 -24 37 -44 73 -44 81 0 7
15 28 34 46 l33 32 36 -48 c19 -26 58 -88 86 -136 146 -253 234 -538 265 -852
l11 -120 80 -1 c143 -1 142 0 141 -31 l-1 -28 -112 -3 -112 -3 -5 -32 c-2 -18
-11 -86 -20 -152 -41 -312 -158 -615 -348 -902 -75 -114 -117 -163 -237 -283
-173 -172 -317 -279 -527 -387 -415 -214 -846 -272 -1314 -177 -212 44 -513
174 -725 314 -187 124 -411 359 -563 594 -186 285 -290 578 -323 909 l-12 117
-93 0 c-56 0 -94 4 -94 10 0 6 -8 10 -19 10 -19 0 -36 36 -22 45 15 8 136 10
184 2 l47 -8 0 68 c0 103 17 221 56 393 38 166 88 301 164 445 114 216 178
304 349 477 293 298 659 493 1076 573 263 51 461 54 720 11z m1495 -304 c20
-16 21 -21 11 -41 -7 -12 -24 -30 -39 -39 -40 -25 -189 -186 -272 -293 -76
-99 -316 -352 -640 -676 -412 -411 -693 -686 -750 -734 -78 -65 -92 -88 -102
-165 -4 -35 -17 -87 -30 -116 l-23 -53 -21 94 c-25 105 -33 115 -139 172 -33
18 -80 52 -105 75 -25 23 -108 80 -186 128 -77 47 -148 94 -157 103 -14 16
-14 20 1 39 30 36 105 74 132 67 25 -6 254 -180 380 -287 l64 -54 106 106 c58
59 137 141 176 182 38 41 90 93 115 114 144 127 388 358 599 568 82 81 175
171 207 200 33 29 159 148 281 265 160 153 235 218 271 234 49 23 50 25 49 65
0 23 3 47 6 53 11 17 41 13 66 -7z m-1899 -512 l1089 -1 -87 -76 -87 -75 -61
6 c-45 4 -1657 19 -1807 16 -10 0 -42 22 -72 49 -30 27 -64 55 -75 61 -25 13
-28 35 -5 26 9 -3 506 -6 1105 -6z m-979 -151 c16 -22 17 -44 8 -294 -14 -404
-13 -1622 2 -1684 l11 -50 -53 -48 c-29 -26 -58 -48 -64 -48 -6 0 -14 27 -18
60 -5 49 -13 1861 -9 2109 l1 69 52 -45 c29 -25 60 -56 70 -69z m2228 -1254
c0 -688 -2 -845 -13 -845 -7 0 -34 13 -59 29 l-47 30 -3 763 c-3 659 -1 764
12 773 8 6 35 29 60 52 25 24 46 43 48 43 1 0 2 -380 2 -845z m-1160 -819
c520 -1 963 2 986 6 39 7 43 6 102 -48 34 -30 71 -68 82 -84 l20 -28 -43 11
c-50 12 -2086 16 -2239 4 -80 -6 -98 -5 -98 6 0 8 10 18 23 24 12 6 45 35 72
66 l50 55 50 -6 c28 -3 475 -6 995 -6z"/>
</g>
</svg>
